<svg version="1.1" xmlns="http://www.w3.org/2000/svg" width="1024" height="1024">
  <path d="M0 0 C16.74695841 13.88457027 29.89874041 33.74489426 32.43457031 55.74707031 C34.53667892 85.5721736 28.80320542 109.8931291 9.12207031 132.99707031 C-5.53953934 148.61926818 -27.12551249 159.31596218 -48.66699219 160.08300781 C-76.2147416 160.4685841 -97.80908213 153.08849307 -118.19433594 134.10253906 C-129.79660429 122.57672717 -137.83531844 107.65671608 -141.56542969 91.74707031 C-141.7884375 90.83441406 -142.01144531 89.92175781 -142.24121094 88.98144531 C-146.90813221 66.25004646 -142.60554634 42.76657521 -130.87402344 22.87988281 C-126.70656633 16.67220889 -121.75791549 11.11149273 -116.56542969 5.74707031 C-115.82808594 4.98394531 -115.09074219 4.22082031 -114.33105469 3.43457031 C-83.9667561 -25.91079208 -32.43154061 -25.95737156 0 0 Z " fill="#EDEDED" transform="translate(276.5654296875,433.2529296875)"></path>
  <path d="M0 0 C9.48777901 7.34136343 17.9650711 17.54746977 19.625 29.8125 C20.33911759 44.64289561 18.32015635 56.43379129 8.4375 68.0625 C0.82171262 76.1077016 -9.01594763 81.58673194 -20.20703125 82.28125 C-21.8668807 82.31482221 -23.52735614 82.32473298 -25.1875 82.3125 C-26.05971191 82.30895508 -26.93192383 82.30541016 -27.83056641 82.30175781 C-35.14292934 82.11471313 -41.00970557 80.50881906 -47.375 76.8125 C-47.99503906 76.45542969 -48.61507812 76.09835937 -49.25390625 75.73046875 C-50.67862893 74.83421463 -52.0323931 73.8276418 -53.375 72.8125 C-54.179375 72.27625 -54.98375 71.74 -55.8125 71.1875 C-59.74756736 67.5403644 -62.56353403 63.36281104 -65.375 58.8125 C-65.81585938 58.10738281 -66.25671875 57.40226563 -66.7109375 56.67578125 C-71.36265562 47.48781319 -70.82825863 34.37936388 -68.64453125 24.51171875 C-67.72881469 22.10842998 -66.70234238 20.01185048 -65.375 17.8125 C-64.96636719 17.090625 -64.55773437 16.36875 -64.13671875 15.625 C-62.95194658 13.62959424 -61.69440108 11.72068918 -60.375 9.8125 C-59.818125 8.966875 -59.26125 8.12125 -58.6875 7.25 C-43.37787032 -8.88717723 -18.79237466 -12.37476433 0 0 Z " fill="#09090b" transform="translate(246.375,466.1875)"></path>
  <path d="M0 0 C6.27 0 12.54 0 19 0 C19 34.98 19 69.96 19 106 C13.39 106 7.78 106 2 106 C1.505 102.04 1.505 102.04 1 98 C0.443125 98.47050781 -0.11375 98.94101562 -0.6875 99.42578125 C-8.96344463 106.17794553 -14.95609546 108.64334244 -25.75390625 108.34375 C-34.49092452 107.41853026 -41.12408626 103.42678065 -47 97 C-54.98097687 86.81594097 -56.76503166 74.60885511 -56 62 C-54.3896594 50.94596709 -49.95993094 41.49974351 -41.10546875 34.47265625 C-32.59798822 28.52215502 -24.13138706 27.80210053 -14 29 C-8.65403856 30.7377691 -4.96386385 33.03613615 -1 37 C-0.67 24.79 -0.34 12.58 0 0 Z " fill="#EDECEC" transform="translate(399,449)"></path>
  <path d="M0 0 C9.35188165 6.74023577 15.41605881 15.17214148 17.6484375 26.55859375 C18.82716416 38.58889674 17.71723741 50.44739822 10.3984375 60.49609375 C2.89665373 69.21351839 -5.97245723 73.92757471 -17.515625 74.796875 C-29.33302017 75.05029544 -38.50985265 72.61122652 -47.3515625 64.55859375 C-56.49105908 55.20655073 -58.64572945 45.05140003 -58.66845703 32.50830078 C-58.48131763 21.06507302 -54.33528464 12.85181875 -46.5390625 4.65234375 C-34.66598009 -6.64623467 -14.13549411 -8.66444739 0 0 Z " fill="#ECECEC" transform="translate(770.3515625,482.44140625)"></path>
  <path d="M0 0 C9.58670106 6.71428127 15.06725174 15.42321864 17.8359375 26.7109375 C18.91954076 38.73137369 17.92059454 50.47878235 10.7109375 60.5859375 C3.32277577 69.15557499 -5.50556021 74.04207267 -16.7421875 75.0234375 C-28.2057862 75.39472815 -37.22712739 73.20631845 -46.09375 65.75390625 C-55.22427118 56.74397686 -58.40423927 47.31700458 -58.6015625 34.7734375 C-58.52216714 22.51630667 -54.78294241 13.67217326 -46.3515625 4.8046875 C-34.51430641 -6.45979813 -14.18872891 -8.45176993 0 0 Z " fill="#ECECEC" transform="translate(885.1640625,482.2890625)"></path>
  <path d="M0 0 C5.8403901 4.66804902 9.24250592 10.21611326 10.765625 17.5234375 C10.85141209 19.35613097 10.88335841 21.19167182 10.87915039 23.02636719 C10.87903709 24.67762604 10.87903709 24.67762604 10.87892151 26.36224365 C10.87376022 27.54465637 10.86859894 28.72706909 10.86328125 29.9453125 C10.8618663 31.16043518 10.86045135 32.37555786 10.85899353 33.62750244 C10.85339488 37.50950581 10.8408426 41.39145156 10.828125 45.2734375 C10.82310983 47.90494708 10.81854695 50.53645757 10.81445312 53.16796875 C10.80342588 59.61981388 10.78616214 66.07161592 10.765625 72.5234375 C4.825625 72.5234375 -1.114375 72.5234375 -7.234375 72.5234375 C-7.564375 70.5434375 -7.894375 68.5634375 -8.234375 66.5234375 C-8.79125 66.93335938 -9.348125 67.34328125 -9.921875 67.765625 C-18.72675111 73.98258144 -26.43819864 75.61002041 -37.234375 74.5234375 C-44.95546403 72.7881145 -49.8490514 69.0566747 -54.234375 62.5234375 C-57.18805698 56.7444945 -57.24746023 49.48738841 -55.65234375 43.24609375 C-53.19162412 37.39205298 -48.92017698 34.11824556 -43.234375 31.5234375 C-37.2387137 29.67919299 -31.13786469 28.72437117 -24.91796875 28.0078125 C-24.2000415 27.92499023 -23.48211426 27.84216797 -22.74243164 27.75683594 C-20.70796219 27.53422488 -18.67038475 27.34058577 -16.6328125 27.1484375 C-13.22708499 26.52209681 -11.62817603 25.98257802 -9.234375 23.5234375 C-8.48376651 20.60961021 -8.48376651 20.60961021 -9.234375 17.5234375 C-12.23870225 13.86952598 -14.49202522 11.84207243 -19.28515625 11.28515625 C-24.79718183 11.10427804 -27.93494265 11.73584233 -32.234375 15.5234375 C-32.59402344 16.3896875 -32.95367188 17.2559375 -33.32421875 18.1484375 C-35.234375 20.5234375 -35.234375 20.5234375 -37.15917969 20.92700195 C-39.597388 21.01658881 -41.98518049 20.95843181 -44.421875 20.8359375 C-45.26685547 20.81337891 -46.11183594 20.79082031 -46.98242188 20.76757812 C-49.06716298 20.70868713 -51.15099304 20.61900548 -53.234375 20.5234375 C-53.44381484 13.56165723 -52.42421993 8.95271389 -47.62109375 3.7890625 C-36.06289662 -6.56462185 -13.28240108 -8.77753078 0 0 Z " fill="#EBEBEB" transform="translate(618.234375,482.4765625)"></path>
  <path d="M0 0 C5.71305206 4.56627154 8.48780545 9.68997885 10.765625 16.5234375 C10.85389465 18.34876336 10.88325703 20.17718439 10.87915039 22.00463867 C10.87903709 23.68604195 10.87903709 23.68604195 10.87892151 25.40141296 C10.87376022 26.61086075 10.86859894 27.82030853 10.86328125 29.06640625 C10.8618663 30.30513992 10.86045135 31.5438736 10.85899353 32.82014465 C10.85434102 36.10975287 10.8453589 39.3993121 10.83428955 42.68890381 C10.82405129 46.04715373 10.81949074 49.40541083 10.81445312 52.76367188 C10.80341645 59.3502821 10.7861479 65.93685028 10.765625 72.5234375 C5.155625 72.5234375 -0.454375 72.5234375 -6.234375 72.5234375 C-6.234375 70.2134375 -6.234375 67.9034375 -6.234375 65.5234375 C-6.76804687 65.92175781 -7.30171875 66.32007813 -7.8515625 66.73046875 C-17.64237922 73.69245088 -26.98372997 75.86055234 -38.796875 73.8984375 C-44.47361595 72.47925226 -49.07472896 69.41336848 -52.5859375 64.71484375 C-56.07916872 58.87184908 -57.00489199 53.2226547 -56.234375 46.5234375 C-54.57068873 40.86328747 -52.39886697 36.64615358 -47.234375 33.5234375 C-39.87952911 29.84601456 -32.81046419 28.56578495 -24.671875 28.0859375 C-16.33113615 27.56630794 -16.33113615 27.56630794 -9.234375 23.5234375 C-8.73367179 20.14986416 -8.73367179 20.14986416 -9.234375 16.5234375 C-13.11970618 12.42225459 -16.17907973 11.67568159 -21.609375 11.2734375 C-25.69070596 11.5549086 -27.83784488 12.25908408 -31.234375 14.5234375 C-31.76160156 15.544375 -32.28882813 16.5653125 -32.83203125 17.6171875 C-35.234375 20.5234375 -35.234375 20.5234375 -37.2409668 21.01123047 C-39.679992 21.11434206 -42.04784509 21.04691354 -44.484375 20.8984375 C-45.32484375 20.87136719 -46.1653125 20.84429687 -47.03125 20.81640625 C-49.10006134 20.74587859 -51.16754893 20.63826117 -53.234375 20.5234375 C-53.49818026 13.73869609 -52.26635258 9.90921777 -48.234375 4.5234375 C-37.0431945 -6.91588447 -13.3223971 -8.80396172 0 0 Z " fill="#EDEDED" transform="translate(485.234375,482.4765625)"></path>
  <path d="M0 0 C5.94 0 11.88 0 18 0 C18.33 19.8 18.66 39.6 19 60 C24.94 53.07 24.94 53.07 31 46 C33.19368238 43.58327025 35.38352124 41.18197407 37.625 38.8125 C40.29887836 35.97708914 42.82907162 33.25639257 45 30 C47.33837891 29.65942383 47.33837891 29.65942383 50.2265625 29.70703125 C51.7734375 29.7215332 51.7734375 29.7215332 53.3515625 29.73632812 C54.43179688 29.76146484 55.51203125 29.78660156 56.625 29.8125 C57.71296875 29.82603516 58.8009375 29.83957031 59.921875 29.85351562 C62.61507409 29.88895246 65.30729374 29.93835669 68 30 C66.37825822 33.41179019 64.50978823 35.83948858 61.9375 38.625 C60.73287109 39.93984375 60.73287109 39.93984375 59.50390625 41.28125 C58.67761719 42.1784375 57.85132813 43.075625 57 44 C55.45581367 45.70605611 53.91407431 47.41433079 52.375 49.125 C51.64152344 49.9396875 50.90804687 50.754375 50.15234375 51.59375 C47.07233494 55.03709923 44.02973434 58.51239584 41 62 C42.34464188 64.81841019 43.85055736 67.37575912 45.6171875 69.94921875 C46.13627686 70.70710693 46.65536621 71.46499512 47.19018555 72.24584961 C47.74617432 73.05159424 48.30216309 73.85733887 48.875 74.6875 C49.44710205 75.52095947 50.0192041 76.35441895 50.60864258 77.21313477 C55.07985352 83.71029601 59.61686866 90.16009386 64.21630859 96.56713867 C64.68504395 97.22431885 65.1537793 97.88149902 65.63671875 98.55859375 C66.04623779 99.12892334 66.45575684 99.69925293 66.87768555 100.28686523 C68.08349621 102.12745115 69.05255178 104.01581383 70 106 C62.40395488 107.55754868 54.41935077 108.74826579 47 106 C40.45127374 100.30020551 36.44737356 92.34169037 32.45947266 84.74511719 C30.82230171 81.66576789 29.01083316 78.84410646 27 76 C23.0176115 77.32746283 20.90121393 79.33406058 19 83 C18.26059898 86.95758376 18.20976956 90.85658231 18.1875 94.875 C18.16236328 95.94492187 18.13722656 97.01484375 18.11132812 98.1171875 C18.052685 100.74439928 18.02342413 103.3722382 18 106 C12.06 106 6.12 106 0 106 C0 71.02 0 36.04 0 0 Z " fill="#ECECEC" transform="translate(643,449)"></path>
  <path d="M0 0 C5.94 0 11.88 0 18 0 C18 6.27 18 12.54 18 19 C24.27 19 30.54 19 37 19 C37 24.61 37 30.22 37 36 C30.73 36 24.46 36 18 36 C18.09698889 41.19656252 18.19975114 46.39233731 18.31738281 51.58837891 C18.35563771 53.3555607 18.3904967 55.12281944 18.421875 56.89013672 C18.46760152 59.43224563 18.52558289 61.97382648 18.5859375 64.515625 C18.59748871 65.30430969 18.60903992 66.09299438 18.62094116 66.90557861 C18.73296247 72.27133725 18.73296247 72.27133725 21 77 C25.54601728 79.27300864 32.08679597 78.68734156 37 79 C37 84.28 37 89.56 37 95 C32.61729758 96.09567561 28.73817476 96.25749786 24.25 96.3125 C23.08984375 96.35600586 23.08984375 96.35600586 21.90625 96.40039062 C15.54155757 96.46980422 10.27855717 94.95153862 5.47021484 90.62280273 C-0.18546902 84.32559393 -0.28397098 77.78934445 -0.1953125 69.7890625 C-0.1924826 68.82092621 -0.18965271 67.85278992 -0.18673706 66.85531616 C-0.17558696 63.77841572 -0.1504918 60.70181172 -0.125 57.625 C-0.11496352 55.5325563 -0.10583884 53.44010802 -0.09765625 51.34765625 C-0.07566453 46.23165749 -0.04117025 41.11587892 0 36 C-4.29 36 -8.58 36 -13 36 C-13 30.39 -13 24.78 -13 19 C-8.71 19 -4.42 19 0 19 C0 12.73 0 6.46 0 0 Z " fill="#ECECEC" transform="translate(517,460)"></path>
  <path d="M0 0 C5.94 0 11.88 0 18 0 C18 34.98 18 69.96 18 106 C12.06 106 6.12 106 0 106 C0 71.02 0 36.04 0 0 Z " fill="#EFEFEF" transform="translate(798,449)"></path>
  <path d="M0 0 C5.92359072 2.48995464 8.89020075 6.86122711 11.84765625 12.41796875 C14.26954474 19.68363423 13.98949544 29.05290371 10.84765625 36.04296875 C8.05516898 40.69711419 5.07114368 43.73540309 -0.15234375 45.41796875 C-6.47028575 46.4367369 -12.27647757 46.62825596 -17.71484375 42.91796875 C-22.60158382 38.57763633 -25.73235865 32.35982891 -26.42578125 25.8515625 C-26.70564015 17.59572484 -25.35708152 10.98833589 -19.625 4.7578125 C-13.6035208 -0.49757519 -7.74730544 -2.09500637 0 0 Z " fill="#09090b" transform="translate(756.15234375,494.58203125)"></path>
  <path d="M0 0 C5.00261667 2.94575568 8.17774656 7.64912151 9.890625 13.11328125 C10.85762989 22.5899292 10.80276696 31.17135759 4.890625 39.11328125 C-0.52431395 44.39929309 -5.57637784 44.5219453 -12.87109375 44.45703125 C-17.46526939 43.96935036 -20.03217815 42.49026232 -23.109375 39.11328125 C-29.21796262 31.23641826 -29.24101313 21.74297148 -28.109375 12.11328125 C-26.27852501 6.75747527 -22.79119056 3.23449162 -18.109375 0.11328125 C-17.51125 -0.29921875 -16.913125 -0.71171875 -16.296875 -1.13671875 C-10.80979681 -3.0180027 -5.24765672 -2.17963694 0 0 Z " fill="#09090b" transform="translate(874.109375,495.88671875)"></path>
  <path d="M0 0 C4.86657107 3.27964572 8.51630801 7.5471645 10.875 12.9375 C11.32951225 16.01007526 11.29098475 19.08452236 11.3125 22.1875 C11.34537109 23.00863281 11.37824219 23.82976563 11.41210938 24.67578125 C11.46697561 30.97043499 9.85162882 35.05794762 5.875 39.9375 C0.48067764 44.83002493 -2.98445748 45.29648199 -10.14453125 45.2109375 C-14.94483715 44.77054246 -17.42899199 42.89954848 -20.51953125 39.32421875 C-25.8831164 32.35310376 -26.89255595 25.5844975 -26.125 16.9375 C-24.68821857 9.65256918 -21.71221343 5.89167576 -16 1.1875 C-11.0766145 -2.094757 -5.38850355 -1.83209121 0 0 Z " fill="#09090b" transform="matrix(1, 0, 0, 1, 388.125, 495.063)"></path>
  <path d="M0 0 C0.34378616 5.72976937 0.40987104 10.11251817 -3 15 C-7.61116784 18.55444188 -11.14900924 20.14397751 -16.9375 20.1875 C-17.79214844 20.20167969 -18.64679687 20.21585938 -19.52734375 20.23046875 C-22.20652508 19.98075043 -23.75197256 19.4614606 -26 18 C-28.14383672 14.78424493 -28.47513667 12.76869576 -28.390625 8.9375 C-28 7 -28 7 -25.6875 4.5625 C-21.14008254 1.91865264 -16.63270611 1.51589343 -11.5 0.9375 C-10.34177734 0.80118164 -10.34177734 0.80118164 -9.16015625 0.66210938 C-6.09023393 0.30829684 -3.09285774 0 0 0 Z " fill="#09090b" transform="translate(610,522)"></path>
  <path d="M0 0 C0.35892545 5.04489655 0.58426255 8.85234141 -1.75 13.4375 C-5.25873437 17.43355858 -8.08919631 19.72514083 -13.5234375 20.23828125 C-21.26695842 20.43982495 -21.26695842 20.43982495 -25.125 18.125 C-27.34377565 15.6103876 -27.93094489 14.51791335 -28.375 11.1875 C-27.87538516 6.9407739 -26.25696061 5.65101445 -23 3 C-19.74604992 1.91534997 -16.98157794 1.71733072 -13.5625 1.5 C-8.98786607 1.20855574 -4.53101942 0 0 0 Z " fill="#09090b" transform="translate(477,522)"></path>
  <path d="M0 0 C6.27 0 12.54 0 19 0 C19 5.28 19 10.56 19 16 C12.73 16 6.46 16 0 16 C0 28.54 0 41.08 0 54 C-0.33 54 -0.66 54 -1 54 C-1.02464775 48.46411467 -1.04283496 42.928261 -1.05493164 37.39233398 C-1.05997244 35.5075627 -1.06680498 33.62279535 -1.07543945 31.73803711 C-1.08751617 29.03498364 -1.09323068 26.33198169 -1.09765625 23.62890625 C-1.10281754 22.78099014 -1.10797882 21.93307404 -1.11329651 21.0594635 C-1.11349195 19.03928932 -1.06206211 17.01922066 -1 15 C0 14 0 14 3.81640625 13.90234375 C5.39846682 13.90901911 6.98051159 13.92098125 8.5625 13.9375 C9.36880859 13.94201172 10.17511719 13.94652344 11.00585938 13.95117188 C13.00393756 13.96299482 15.00197783 13.98093086 17 14 C17 9.71 17 5.42 17 1 C11.39 1 5.78 1 0 1 C0 0.67 0 0.34 0 0 Z " fill="#F9F9F9" transform="translate(535,480)"></path>
  <path d="M0 0 C5.94 0 11.88 0 18 0 C18 6.27 18 12.54 18 19 C24.27 19 30.54 19 37 19 C37 19.33 37 19.66 37 20 C30.4 20 23.8 20 17 20 C17 14.39 17 8.78 17 3 C12.05 3.33 7.1 3.66 2 4 C1.67 9.28 1.34 14.56 1 20 C-3.62 20 -8.24 20 -13 20 C-13 19.67 -13 19.34 -13 19 C-8.71 19 -4.42 19 0 19 C0 12.73 0 6.46 0 0 Z " fill="#DBDBDB" transform="translate(517,460)"></path>
  <path d="M0 0 C4.29 0 8.58 0 13 0 C13 0.33 13 0.66 13 1 C9.37 1 5.74 1 2 1 C2 5.29 2 9.58 2 14 C4.6915625 13.9690625 4.6915625 13.9690625 7.4375 13.9375 C9.29166122 13.9161878 11.14712498 13.92773498 13 14 C14 15 14 15 14.11352539 18.78540039 C14.11336622 20.47282729 14.10766917 22.16025905 14.09765625 23.84765625 C14.0962413 24.7340831 14.09482635 25.62050995 14.09336853 26.53379822 C14.08775215 29.37673254 14.07519691 32.21958931 14.0625 35.0625 C14.05748711 36.98502491 14.05292384 38.90755104 14.04882812 40.83007812 C14.03777741 45.55341549 14.02050183 50.27669458 14 55 C13.67 55 13.34 55 13 55 C13 42.13 13 29.26 13 16 C8.71 16 4.42 16 0 16 C0 10.72 0 5.44 0 0 Z " fill="#FAFAFA" transform="translate(504,480)"></path>
  <path d="M0 0 C0.67417969 0.31710937 1.34835937 0.63421875 2.04296875 0.9609375 C5.53224473 2.18702391 8.62440058 2.41819069 12.3125 2.625 C15.6228125 2.810625 15.6228125 2.810625 19 3 C19 8.28 19 13.56 19 19 C16.36 19 13.72 19 11 19 C11 18.67 11 18.34 11 18 C12.98 18 14.96 18 17 18 C17 13.71 17 9.42 17 5 C15.47375 5.061875 13.9475 5.12375 12.375 5.1875 C7.84897897 5.19391989 4.84560272 4.56373515 1 2 C0.67 1.34 0.34 0.68 0 0 Z " fill="#F7F7F7" transform="translate(535,536)"></path>
  <path d="M0 0 C0.66 0.33 1.32 0.66 2 1 C-1 6 -1 6 -2.6875 8.125 C-4.73759453 12.61568325 -4.22984365 17.13923245 -4 22 C-4.99 21.67 -5.98 21.34 -7 21 C-7.44115759 14.05176801 -6.61730419 9.02480765 -3 3 C-1.36328125 1.2421875 -1.36328125 1.2421875 0 0 Z " fill="#E2E2E2" transform="translate(436,517)"></path>
  <path d="M0 0 C0.99 0.33 1.98 0.66 3 1 C3 1.99 3 2.98 3 4 C7.62 4 12.24 4 17 4 C17.33 4.99 17.66 5.98 18 7 C12.06 7 6.12 7 0 7 C0 4.69 0 2.38 0 0 Z " fill="#DDDCDC" transform="translate(432,496)"></path>
  <path d="M0 0 C-0.33 0.99 -0.66 1.98 -1 3 C-5.95 3 -10.9 3 -16 3 C-16 2.34 -16 1.68 -16 1 C-14.27111445 0.83044205 -12.54187557 0.66448486 -10.8125 0.5 C-9.84957031 0.4071875 -8.88664063 0.314375 -7.89453125 0.21875 C-5.24812333 0.01875156 -2.65239135 -0.03879183 0 0 Z " fill="#E6E6E6" transform="translate(873,554)"></path>
  <path d="M0 0 C0.66 0 1.32 0 2 0 C3.21386936 3.64160808 2.6674695 4.33165469 1.0625 7.6875 C0.68222656 8.49574219 0.30195313 9.30398438 -0.08984375 10.13671875 C-0.39019531 10.75160156 -0.69054687 11.36648438 -1 12 C-1.66 12 -2.32 12 -3 12 C-2.01 8.04 -1.02 4.08 0 0 Z " fill="#E1E0E1" transform="translate(138,472)"></path>
  <path d="M0 0 C0.33 0 0.66 0 1 0 C1 2.31 1 4.62 1 7 C6.61 7 12.22 7 18 7 C18 7.33 18 7.66 18 8 C12.06 8.33 6.12 8.66 0 9 C-1.53445094 5.93109813 -0.54984289 3.29905734 0 0 Z " fill="#484748" transform="translate(478,548)"></path>
  <path d="M0 0 C0.33 0 0.66 0 1 0 C1.22126178 2.45779976 1.42750395 4.91527648 1.625 7.375 C1.68945312 8.07367187 1.75390625 8.77234375 1.8203125 9.4921875 C1.96119739 11.32369111 1.98761659 13.16312748 2 15 C1.34 15.66 0.68 16.32 0 17 C-0.66 17 -1.32 17 -2 17 C-1.34 11.39 -0.68 5.78 0 0 Z " fill="#232324" transform="translate(397,512)"></path>
  <path d="M0 0 C-0.33 0.66 -0.66 1.32 -1 2 C-2.77734375 2.484375 -2.77734375 2.484375 -4.9375 2.75 C-5.64777344 2.84796875 -6.35804688 2.9459375 -7.08984375 3.046875 C-9 3 -9 3 -11 1 C-6.87831311 -0.62950412 -4.29299643 -1.26264601 0 0 Z " fill="#E3E2E2" transform="translate(860,479)"></path>
  <path d="M0 0 C0.33 0 0.66 0 1 0 C1.8125 2.6875 1.8125 2.6875 2 6 C-0.4375 8.875 -0.4375 8.875 -3 11 C-3 6.32674845 -1.92757363 4.17640953 0 0 Z " fill="#232324" transform="translate(607,528)"></path>
  <path d="M0 0 C0.33 0 0.66 0 1 0 C1.33 2.97 1.66 5.94 2 9 C1.01 9.33 0.02 9.66 -1 10 C-1 10.66 -1 11.32 -1 12 C-1.66 11.67 -2.32 11.34 -3 11 C-2.690625 10.29875 -2.38125 9.5975 -2.0625 8.875 C-0.96697322 5.91063343 -0.43577008 3.12301892 0 0 Z " fill="#E5E5E5" transform="translate(265,511)"></path>
  <path d="M0 0 C0.33 0.99 0.66 1.98 1 3 C-0.9375 5.6875 -0.9375 5.6875 -3 8 C-3.66 7.67 -4.32 7.34 -5 7 C-4.34 6.34 -3.68 5.68 -3 5 C-2.835 4.319375 -2.67 3.63875 -2.5 2.9375 C-2.335 2.298125 -2.17 1.65875 -2 1 C-1.34 0.67 -0.68 0.34 0 0 Z " fill="#111010" transform="translate(396,528)"></path>
  <path d="M0 0 C0.33 0.99 0.66 1.98 1 3 C-0.4375 5.1875 -0.4375 5.1875 -2 7 C-2.33 5.35 -2.66 3.7 -3 2 C-2.01 1.34 -1.02 0.68 0 0 Z " fill="#E6E6E6" transform="translate(733,501)"></path>
</svg>
